<?xml version="1.0" encoding="UTF-8"?>
<!DOCTYPE score-partwise PUBLIC "-//Recordare//DTD MusicXML 3.0 Partwise//EN" "http://www.musicxml.org/dtds/partwise.dtd">
<score-partwise version="3.0">
  <work><work-title>Come, Christians, Join to Sing</work-title></work>
  <identification><creator type="composer">SDAH 10 (MADRID)</creator></identification>
  <part-list>
    <score-part id="P1"><part-name>Piano</part-name></score-part>
  </part-list>
  <part id="P1">
    <!-- Measures 1-16 (Full MADRID Tune) -->
    <!-- Simplified SATB for SDAH 10 -->
    <measure number="1">
      <attributes>
        <divisions>4</divisions>
        <key><fifths>3</fifths><mode>major</mode></key>
        <time><beats>4</beats><beat-type>4</beat-type></time>
        <staves>2</staves>
        <clef number="1"><sign>G</sign><line>2</line></clef>
        <clef number="2"><sign>F</sign><line>4</line></clef>
      </attributes>
      <note><pitch><step>A</step><octave>4</octave></pitch><duration>4</duration><voice>1</voice><type>quarter</type><staff>1</staff><lyric><syllabic>single</syllabic><text>Come,</text></lyric></note>
      <note><pitch><step>A</step><octave>4</octave></pitch><duration>4</duration><voice>1</voice><type>quarter</type><staff>1</staff><lyric><syllabic>begin</syllabic><text>Chris</text></lyric></note>
      <note><pitch><step>B</step><octave>4</octave></pitch><duration>4</duration><voice>1</voice><type>quarter</type><staff>1</staff><lyric><syllabic>end</syllabic><text>tians,</text></lyric></note>
      <note><pitch><step>G</step><alter>1</alter><octave>4</octave></pitch><duration>4</duration><voice>1</voice><type>quarter</type><staff>1</staff><lyric><syllabic>single</syllabic><text>join</text></lyric></note>
      <backup><duration>16</duration></backup>
      <note><pitch><step>E</step><octave>4</octave></pitch><duration>16</duration><voice>2</voice><type>whole</type><staff>1</staff></note>
      <backup><duration>16</duration></backup>
      <note><pitch><step>C</step><alter>1</alter><octave>4</octave></pitch><duration>16</duration><voice>5</voice><type>whole</type><staff>2</staff></note>
      <backup><duration>16</duration></backup>
      <note><pitch><step>A</step><octave>2</octave></pitch><duration>16</duration><voice>6</voice><type>whole</type><staff>2</staff></note>
    </measure>
    <measure number="2">
      <note><pitch><step>A</step><octave>4</octave></pitch><duration>8</duration><voice>1</voice><type>half</type><staff>1</staff><lyric><syllabic>single</syllabic><text>to</text></lyric></note>
      <note><pitch><step>A</step><octave>4</octave></pitch><duration>8</duration><voice>1</voice><type>half</type><staff>1</staff><lyric><syllabic>single</syllabic><text>sing:</text></lyric></note>
      <backup><duration>16</duration></backup>
      <note><pitch><step>E</step><octave>4</octave></pitch><duration>16</duration><voice>2</voice><type>whole</type><staff>1</staff></note>
      <backup><duration>16</duration></backup>
      <note><pitch><step>A</step><octave>3</octave></pitch><duration>16</duration><voice>5</voice><type>whole</type><staff>2</staff></note>
      <backup><duration>16</duration></backup>
      <note><pitch><step>A</step><octave>2</octave></pitch><duration>16</duration><voice>6</voice><type>whole</type><staff>2</staff></note>
    </measure>
    <measure number="3">
      <note><pitch><step>D</step><octave>5</octave></pitch><duration>4</duration><voice>1</voice><type>quarter</type><staff>1</staff><lyric><syllabic>begin</syllabic><text>Al</text></lyric></note>
      <note><pitch><step>C</step><alter>1</alter><octave>5</octave></pitch><duration>4</duration><voice>1</voice><type>quarter</type><staff>1</staff><lyric><syllabic>middle</syllabic><text>le</text></lyric></note>
      <note><pitch><step>B</step><octave>4</octave></pitch><duration>4</duration><voice>1</voice><type>quarter</type><staff>1</staff><lyric><syllabic>middle</syllabic><text>lu</text></lyric></note>
      <note><pitch><step>A</step><octave>4</octave></pitch><duration>4</duration><voice>1</voice><type>quarter</type><staff>1</staff><lyric><syllabic>end</syllabic><text>ia!</text></lyric></note>
      <backup><duration>16</duration></backup>
      <note><pitch><step>F</step><alter>1</alter><octave>4</octave></pitch><duration>16</duration><voice>2</voice><type>whole</type><staff>1</staff></note>
      <backup><duration>16</duration></backup>
      <note><pitch><step>A</step><octave>3</octave></pitch><duration>16</duration><voice>5</voice><type>whole</type><staff>2</staff></note>
      <backup><duration>16</duration></backup>
      <note><pitch><step>D</step><octave>3</octave></pitch><duration>16</duration><voice>6</voice><type>whole</type><staff>2</staff></note>
    </measure>
    <measure number="4">
      <note><pitch><step>B</step><octave>4</octave></pitch><duration>8</duration><voice>1</voice><type>half</type><staff>1</staff><lyric><syllabic>single</syllabic><text>A</text></lyric></note>
      <note><pitch><step>A</step><octave>4</octave></pitch><duration>8</duration><voice>1</voice><type>half</type><staff>1</staff><lyric><syllabic>single</syllabic><text>men!</text></lyric></note>
      <backup><duration>16</duration></backup>
      <note><pitch><step>G</step><alter>1</alter><octave>4</octave></pitch><duration>16</duration><voice>2</voice><type>whole</type><staff>1</staff></note>
      <backup><duration>16</duration></backup>
      <note><pitch><step>E</step><octave>3</octave></pitch><duration>16</duration><voice>5</voice><type>whole</type><staff>2</staff></note>
      <backup><duration>16</duration></backup>
      <note><pitch><step>E</step><octave>3</octave></pitch><duration>16</duration><voice>6</voice><type>whole</type><staff>2</staff></note>
    </measure>
    <measure number="5">
      <note><pitch><step>A</step><octave>4</octave></pitch><duration>4</duration><voice>1</voice><type>quarter</type><staff>1</staff><lyric><syllabic>single</syllabic><text>Loud</text></lyric></note>
      <note><pitch><step>A</step><octave>4</octave></pitch><duration>4</duration><voice>1</voice><type>quarter</type><staff>1</staff><lyric><syllabic>single</syllabic><text>praise</text></lyric></note>
      <note><pitch><step>B</step><octave>4</octave></pitch><duration>4</duration><voice>1</voice><type>quarter</type><staff>1</staff><lyric><syllabic>single</syllabic><text>to</text></lyric></note>
      <note><pitch><step>G</step><alter>1</alter><octave>4</octave></pitch><duration>4</duration><voice>1</voice><type>quarter</type><staff>1</staff><lyric><syllabic>single</syllabic><text>Christ</text></lyric></note>
      <backup><duration>16</duration></backup>
      <note><pitch><step>E</step><octave>4</octave></pitch><duration>16</duration><voice>2</voice><type>whole</type><staff>1</staff></note>
      <backup><duration>16</duration></backup>
      <note><pitch><step>C</step><alter>1</alter><octave>4</octave></pitch><duration>16</duration><voice>5</voice><type>whole</type><staff>2</staff></note>
      <backup><duration>16</duration></backup>
      <note><pitch><step>A</step><octave>2</octave></pitch><duration>16</duration><voice>6</voice><type>whole</type><staff>2</staff></note>
    </measure>
    <measure number="6">
      <note><pitch><step>A</step><octave>4</octave></pitch><duration>8</duration><voice>1</voice><type>half</type><staff>1</staff><lyric><syllabic>single</syllabic><text>our</text></lyric></note>
      <note><pitch><step>A</step><octave>4</octave></pitch><duration>8</duration><voice>1</voice><type>half</type><staff>1</staff><lyric><syllabic>single</syllabic><text>King;</text></lyric></note>
      <backup><duration>16</duration></backup>
      <note><pitch><step>E</step><octave>4</octave></pitch><duration>16</duration><voice>2</voice><type>whole</type><staff>1</staff></note>
      <backup><duration>16</duration></backup>
      <note><pitch><step>A</step><octave>3</octave></pitch><duration>16</duration><voice>5</voice><type>whole</type><staff>2</staff></note>
      <backup><duration>16</duration></backup>
      <note><pitch><step>A</step><octave>2</octave></pitch><duration>16</duration><voice>6</voice><type>whole</type><staff>2</staff></note>
    </measure>
    <measure number="7">
      <note><pitch><step>D</step><octave>5</octave></pitch><duration>4</duration><voice>1</voice><type>quarter</type><staff>1</staff><lyric><syllabic>begin</syllabic><text>Al</text></lyric></note>
      <note><pitch><step>C</step><alter>1</alter><octave>5</octave></pitch><duration>4</duration><voice>1</voice><type>quarter</type><staff>1</staff><lyric><syllabic>middle</syllabic><text>le</text></lyric></note>
      <note><pitch><step>B</step><octave>4</octave></pitch><duration>4</duration><voice>1</voice><type>quarter</type><staff>1</staff><lyric><syllabic>middle</syllabic><text>lu</text></lyric></note>
      <note><pitch><step>A</step><octave>4</octave></pitch><duration>4</duration><voice>1</voice><type>quarter</type><staff>1</staff><lyric><syllabic>end</syllabic><text>ia!</text></lyric></note>
      <backup><duration>16</duration></backup>
      <note><pitch><step>F</step><alter>1</alter><octave>4</octave></pitch><duration>16</duration><voice>2</voice><type>whole</type><staff>1</staff></note>
      <backup><duration>16</duration></backup>
      <note><pitch><step>A</step><octave>3</octave></pitch><duration>16</duration><voice>5</voice><type>whole</type><staff>2</staff></note>
      <backup><duration>16</duration></backup>
      <note><pitch><step>D</step><octave>3</octave></pitch><duration>16</duration><voice>6</voice><type>whole</type><staff>2</staff></note>
    </measure>
    <measure number="8">
      <note><pitch><step>B</step><octave>4</octave></pitch><duration>8</duration><voice>1</voice><type>half</type><staff>1</staff><lyric><syllabic>single</syllabic><text>A</text></lyric></note>
      <note><pitch><step>A</step><octave>4</octave></pitch><duration>8</duration><voice>1</voice><type>half</type><staff>1</staff><lyric><syllabic>single</syllabic><text>men!</text></lyric></note>
      <backup><duration>16</duration></backup>
      <note><pitch><step>G</step><alter>1</alter><octave>4</octave></pitch><duration>16</duration><voice>2</voice><type>whole</type><staff>1</staff></note>
      <backup><duration>16</duration></backup>
      <note><pitch><step>E</step><octave>3</octave></pitch><duration>16</duration><voice>5</voice><type>whole</type><staff>2</staff></note>
      <backup><duration>16</duration></backup>
      <note><pitch><step>E</step><octave>3</octave></pitch><duration>16</duration><voice>6</voice><type>whole</type><staff>2</staff></note>
    </measure>
    <measure number="9">
      <note><pitch><step>C</step><alter>1</alter><octave>5</octave></pitch><duration>8</duration><voice>1</voice><type>half</type><staff>1</staff><lyric><syllabic>single</syllabic><text>Let</text></lyric></note>
      <note><pitch><step>C</step><alter>1</alter><octave>5</octave></pitch><duration>8</duration><voice>1</voice><type>half</type><staff>1</staff><lyric><syllabic>single</syllabic><text>all,</text></lyric></note>
      <backup><duration>16</duration></backup>
      <note><pitch><step>A</step><octave>4</octave></pitch><duration>16</duration><voice>2</voice><type>whole</type><staff>1</staff></note>
      <backup><duration>16</duration></backup>
      <note><pitch><step>E</step><octave>4</octave></pitch><duration>16</duration><voice>5</voice><type>whole</type><staff>2</staff></note>
      <backup><duration>16</duration></backup>
      <note><pitch><step>A</step><octave>3</octave></pitch><duration>16</duration><voice>6</voice><type>whole</type><staff>2</staff></note>
    </measure>
    <measure number="10">
      <note><pitch><step>B</step><octave>4</octave></pitch><duration>8</duration><voice>1</voice><type>half</type><staff>1</staff><lyric><syllabic>single</syllabic><text>with</text></lyric></note>
      <note><pitch><step>B</step><octave>4</octave></pitch><duration>8</duration><voice>1</voice><type>half</type><staff>1</staff><lyric><syllabic>single</syllabic><text>heart</text></lyric></note>
      <backup><duration>16</duration></backup>
      <note><pitch><step>G</step><alter>1</alter><octave>4</octave></pitch><duration>16</duration><voice>2</voice><type>whole</type><staff>1</staff></note>
      <backup><duration>16</duration></backup>
      <note><pitch><step>E</step><octave>4</octave></pitch><duration>16</duration><voice>5</voice><type>whole</type><staff>2</staff></note>
      <backup><duration>16</duration></backup>
      <note><pitch><step>E</step><octave>3</octave></pitch><duration>16</duration><voice>6</voice><type>whole</type><staff>2</staff></note>
    </measure>
    <measure number="11">
      <note><pitch><step>A</step><octave>4</octave></pitch><duration>8</duration><voice>1</voice><type>half</type><staff>1</staff><lyric><syllabic>single</syllabic><text>and</text></lyric></note>
      <note><pitch><step>D</step><octave>5</octave></pitch><duration>8</duration><voice>1</voice><type>half</type><staff>1</staff><lyric><syllabic>single</syllabic><text>voice,</text></lyric></note>
      <backup><duration>16</duration></backup>
      <note><pitch><step>F</step><alter>1</alter><octave>4</octave></pitch><duration>16</duration><voice>2</voice><type>whole</type><staff>1</staff></note>
      <backup><duration>16</duration></backup>
      <note><pitch><step>D</step><octave>4</octave></pitch><duration>16</duration><voice>5</voice><type>whole</type><staff>2</staff></note>
      <backup><duration>16</duration></backup>
      <note><pitch><step>D</step><octave>3</octave></pitch><duration>16</duration><voice>6</voice><type>whole</type><staff>2</staff></note>
    </measure>
    <measure number="12">
      <note><pitch><step>C</step><alter>1</alter><octave>5</octave></pitch><duration>8</duration><voice>1</voice><type>half</type><staff>1</staff><lyric><syllabic>single</syllabic><text>Be</text></lyric></note>
      <note><pitch><step>B</step><octave>4</octave></pitch><duration>8</duration><voice>1</voice><type>half</type><staff>1</staff><lyric><syllabic>begin</syllabic><text>fore</text></lyric></note>
      <backup><duration>16</duration></backup>
      <note><pitch><step>E</step><octave>4</octave></pitch><duration>16</duration><voice>2</voice><type>whole</type><staff>1</staff></note>
      <backup><duration>16</duration></backup>
      <note><pitch><step>A</step><octave>3</octave></pitch><duration>16</duration><voice>5</voice><type>whole</type><staff>2</staff></note>
      <backup><duration>16</duration></backup>
      <note><pitch><step>E</step><octave>3</octave></pitch><duration>16</duration><voice>6</voice><type>whole</type><staff>2</staff></note>
    </measure>
    <measure number="13">
      <note><pitch><step>A</step><octave>4</octave></pitch><duration>8</duration><voice>1</voice><type>half</type><staff>1</staff><lyric><syllabic>single</syllabic><text>His</text></lyric></note>
      <note><pitch><step>A</step><octave>4</octave></pitch><duration>8</duration><voice>1</voice><type>half</type><staff>1</staff><lyric><syllabic>single</syllabic><text>throne</text></lyric></note>
      <backup><duration>16</duration></backup>
      <note><pitch><step>E</step><octave>4</octave></pitch><duration>16</duration><voice>2</voice><type>whole</type><staff>1</staff></note>
      <backup><duration>16</duration></backup>
      <note><pitch><step>C</step><alter>1</alter><octave>4</octave></pitch><duration>16</duration><voice>5</voice><type>whole</type><staff>2</staff></note>
      <backup><duration>16</duration></backup>
      <note><pitch><step>A</step><octave>2</octave></pitch><duration>16</duration><voice>6</voice><type>whole</type><staff>2</staff></note>
    </measure>
    <measure number="14">
      <note><pitch><step>B</step><octave>4</octave></pitch><duration>8</duration><voice>1</voice><type>half</type><staff>1</staff><lyric><syllabic>begin</syllabic><text>re</text></lyric></note>
      <note><pitch><step>G</step><alter>1</alter><octave>4</octave></pitch><duration>8</duration><voice>1</voice><type>half</type><staff>1</staff><lyric><syllabic>end</syllabic><text>joice;</text></lyric></note>
      <backup><duration>16</duration></backup>
      <note><pitch><step>E</step><octave>4</octave></pitch><duration>16</duration><voice>2</voice><type>whole</type><staff>1</staff></note>
      <backup><duration>16</duration></backup>
      <note><pitch><step>E</step><octave>3</octave></pitch><duration>16</duration><voice>5</voice><type>whole</type><staff>2</staff></note>
      <backup><duration>16</duration></backup>
      <note><pitch><step>E</step><octave>3</octave></pitch><duration>16</duration><voice>6</voice><type>whole</type><staff>2</staff></note>
    </measure>
    <measure number="15">
      <note><pitch><step>A</step><octave>4</octave></pitch><duration>4</duration><voice>1</voice><type>quarter</type><staff>1</staff><lyric><syllabic>single</syllabic><text>Praise</text></lyric></note>
      <note><pitch><step>A</step><octave>4</octave></pitch><duration>4</duration><voice>1</voice><type>quarter</type><staff>1</staff><lyric><syllabic>single</syllabic><text>is</text></lyric></note>
      <note><pitch><step>B</step><octave>4</octave></pitch><duration>4</duration><voice>1</voice><type>quarter</type><staff>1</staff><lyric><syllabic>single</syllabic><text>His</text></lyric></note>
      <note><pitch><step>G</step><alter>1</alter><octave>4</octave></pitch><duration>4</duration><voice>1</voice><type>quarter</type><staff>1</staff><lyric><syllabic>begin</syllabic><text>gra</text></lyric></note>
      <backup><duration>16</duration></backup>
      <note><pitch><step>E</step><octave>4</octave></pitch><duration>16</duration><voice>2</voice><type>whole</type><staff>1</staff></note>
      <backup><duration>16</duration></backup>
      <note><pitch><step>C</step><alter>1</alter><octave>4</octave></pitch><duration>16</duration><voice>5</voice><type>whole</type><staff>2</staff></note>
      <backup><duration>16</duration></backup>
      <note><pitch><step>A</step><octave>2</octave></pitch><duration>16</duration><voice>6</voice><type>whole</type><staff>2</staff></note>
    </measure>
    <measure number="16">
      <note><pitch><step>A</step><octave>4</octave></pitch><duration>4</duration><voice>1</voice><type>quarter</type><staff>1</staff><lyric><syllabic>middle</syllabic><text>cious</text></lyric></note>
      <note><pitch><step>A</step><octave>4</octave></pitch><duration>4</duration><voice>1</voice><type>quarter</type><staff>1</staff><lyric><syllabic>end</syllabic><text>choice.</text></lyric></note>
      <note><pitch><step>B</step><octave>4</octave></pitch><duration>4</duration><voice>1</voice><type>quarter</type><staff>1</staff><lyric><syllabic>begin</syllabic><text>Al</text></lyric></note>
      <note><pitch><step>A</step><octave>4</octave></pitch><duration>4</duration><voice>1</voice><type>quarter</type><staff>1</staff><lyric><syllabic>end</syllabic><text>men!</text></lyric></note>
      <backup><duration>16</duration></backup>
      <note><pitch><step>E</step><octave>4</octave></pitch><duration>16</duration><voice>2</voice><type>whole</type><staff>1</staff></note>
      <backup><duration>16</duration></backup>
      <note><pitch><step>A</step><octave>3</octave></pitch><duration>16</duration><voice>5</voice><type>whole</type><staff>2</staff></note>
      <backup><duration>16</duration></backup>
      <note><pitch><step>A</step><octave>2</octave></pitch><duration>16</duration><voice>6</voice><type>whole</type><staff>2</staff></note>
    </measure>
  </part>
</score-partwise>