<?xml version="1.0" encoding='UTF-8' standalone='no' ?>
<!DOCTYPE score-partwise PUBLIC "-//Recordare//DTD MusicXML 2.0 Partwise//EN" "http://www.musicxml.org/dtds/partwise.dtd">
<score-partwise version="2.0">
 <work>
  <work-title>Praise to the Lord, the Almighty</work-title>
 </work>
 <identification>
  <encoding>
   <encoding-date>2012-06-28</encoding-date>
   <encoder>jsk9</encoder>
   <software>Sibelius 7.0.0</software>
   <software>Direct export, not from Dolet</software>
   <encoding-description>Sibelius / MusicXML 2.0</encoding-description>
   <supports element="print" type="yes" value="yes" attribute="new-system" />
   <supports element="print" type="yes" value="yes" attribute="new-page" />
   <supports element="accidental" type="yes" />
   <supports element="beam" type="yes" />
   <supports element="stem" type="yes" />
  </encoding>
 </identification>
 <defaults>
  <scaling>
   <millimeters>149.098</millimeters>
   <tenths>955</tenths>
  </scaling>
  <page-layout>
   <page-height>1303</page-height>
   <page-width>955</page-width>
   <page-margins type="both">
    <left-margin>112</left-margin>
    <right-margin>112</right-margin>
    <top-margin>81</top-margin>
    <bottom-margin>81</bottom-margin>
   </page-margins>
  </page-layout>
  <system-layout>
   <system-distance>40</system-distance>
  </system-layout>
  <appearance>
   <line-width type="stem">0.9375</line-width>
   <line-width type="beam">5</line-width>
   <line-width type="staff">0.9375</line-width>
   <line-width type="light barline">1.5625</line-width>
   <line-width type="heavy barline">5</line-width>
   <line-width type="leger">1.5625</line-width>
   <line-width type="ending">1.5625</line-width>
   <line-width type="wedge">1.25</line-width>
   <line-width type="enclosure">0.9375</line-width>
   <line-width type="tuplet bracket">1.25</line-width>
   <line-width type="bracket">5</line-width>
   <line-width type="dashes">1.5625</line-width>
   <line-width type="extend">0.9375</line-width>
   <line-width type="octave shift">1.5625</line-width>
   <line-width type="pedal">1.5625</line-width>
   <line-width type="slur middle">1.5625</line-width>
   <line-width type="slur tip">0.625</line-width>
   <line-width type="tie middle">1.5625</line-width>
   <line-width type="tie tip">0.625</line-width>
   <note-size type="cue">75</note-size>
   <note-size type="grace">60</note-size>
  </appearance>
  <music-font font-family="Opus Std" font-size="17.6825" />
  <lyric-font font-family="Times New Roman" font-size="9.9464" />
  <lyric-language xml:lang="en" />
 </defaults>
 <credit page="1">
  <credit-words default-x="477" default-y="1148" font-family="Times New Roman" font-size="20.031" justify="center" valign="middle">Praise to the Lord, the Almighty</credit-words>
 </credit>
 <part-list>
  <score-part id="P1">
   <part-name>Piano</part-name>
   <part-name-display>
    <display-text>Piano</display-text>
   </part-name-display>
   <part-abbreviation>Pno.</part-abbreviation>
   <part-abbreviation-display>
    <display-text>Pno.</display-text>
   </part-abbreviation-display>
   <score-instrument id="P1-I1">
    <instrument-name>Piano (2)</instrument-name>
   </score-instrument>
  </score-part>
 </part-list>
 <part id="P1">
  <measure number="1" width="236">
   <print new-page="yes">
    <system-layout>
     <system-margins>
      <left-margin>0</left-margin>
      <right-margin>0</right-margin>
     </system-margins>
     <top-system-distance>163</top-system-distance>
    </system-layout>
   </print>
   <attributes>
    <divisions>256</divisions>
    <key color="#000000">
     <fifths>-1</fifths>
     <mode>major</mode>
    </key>
    <time color="#000000">
     <beats>3</beats>
     <beat-type>4</beat-type>
    </time>
    <staves>1</staves>
    <clef number="1" color="#000000">
     <sign>G</sign>
     <line>2</line>
    </clef>
    <staff-details number="1" print-object="yes" />
   </attributes>
   <note color="#000000" default-x="86">
    <pitch>
     <step>F</step>
     <octave>4</octave>
    </pitch>
    <duration>256</duration>
    <instrument id="P1-I1" />
    <voice>1</voice>
    <type>quarter</type>
    <stem>up</stem>
    <staff>1</staff>
    <lyric default-y="-77" number="1" color="#000000">
     <syllabic>single</syllabic>
     <text>1 Praise</text>
    </lyric>
    <lyric default-y="-102" number="2" color="#000000">
     <syllabic>single</syllabic>
     <text>2 Praise</text>
    </lyric>
    <lyric default-y="-127" number="3" color="#000000">
     <syllabic>single</syllabic>
     <text>3 Praise</text>
    </lyric>
    <lyric default-y="-152" number="4" color="#000000">
     <syllabic>single</syllabic>
     <text>4 Praise</text>
    </lyric>
   </note>
   <note color="#000000" default-x="139">
    <pitch>
     <step>F</step>
     <octave>4</octave>
    </pitch>
    <duration>256</duration>
    <instrument id="P1-I1" />
    <voice>1</voice>
    <type>quarter</type>
    <stem>up</stem>
    <staff>1</staff>
    <lyric default-y="-77" number="1" color="#000000">
     <syllabic>single</syllabic>
     <text>to</text>
    </lyric>
    <lyric default-y="-102" number="2" color="#000000">
     <syllabic>single</syllabic>
     <text>to</text>
    </lyric>
    <lyric default-y="-127" number="3" color="#000000">
     <syllabic>single</syllabic>
     <text>to</text>
    </lyric>
    <lyric default-y="-152" number="4" color="#000000">
     <syllabic>single</syllabic>
     <text>to</text>
    </lyric>
   </note>
   <note color="#000000" default-x="187">
    <pitch>
     <step>C</step>
     <octave>5</octave>
    </pitch>
    <duration>256</duration>
    <instrument id="P1-I1" />
    <voice>1</voice>
    <type>quarter</type>
    <stem>down</stem>
    <staff>1</staff>
    <lyric default-y="-77" number="1" color="#000000">
     <syllabic>single</syllabic>
     <text>the</text>
    </lyric>
    <lyric default-y="-102" number="2" color="#000000">
     <syllabic>single</syllabic>
     <text>the</text>
    </lyric>
    <lyric default-y="-127" number="3" color="#000000">
     <syllabic>single</syllabic>
     <text>the</text>
    </lyric>
    <lyric default-y="-152" number="4" color="#000000">
     <syllabic>single</syllabic>
     <text>the</text>
    </lyric>
   </note>
  </measure>
  <measure number="2" width="173">
   <note color="#000000" default-x="15">
    <pitch>
     <step>A</step>
     <octave>4</octave>
    </pitch>
    <duration>384</duration>
    <instrument id="P1-I1" />
    <voice>1</voice>
    <type>quarter</type>
    <dot />
    <stem>up</stem>
    <staff>1</staff>
    <lyric default-y="-77" number="1" color="#000000">
     <syllabic>single</syllabic>
     <text>Lord,</text>
    </lyric>
    <lyric default-y="-102" number="2" color="#000000">
     <syllabic>single</syllabic>
     <text>Lord,</text>
    </lyric>
    <lyric default-y="-127" number="3" color="#000000">
     <syllabic>single</syllabic>
     <text>Lord,</text>
    </lyric>
    <lyric default-y="-152" number="4" color="#000000">
     <syllabic>single</syllabic>
     <text>Lord!</text>
    </lyric>
   </note>
   <note color="#000000" default-x="80">
    <pitch>
     <step>G</step>
     <octave>4</octave>
    </pitch>
    <duration>128</duration>
    <instrument id="P1-I1" />
    <voice>1</voice>
    <type>eighth</type>
    <stem>up</stem>
    <staff>1</staff>
    <lyric default-y="-77" number="1" color="#000000">
     <syllabic>single</syllabic>
     <text>the</text>
    </lyric>
    <lyric default-y="-102" number="2" color="#000000">
     <syllabic>begin</syllabic>
     <text>a</text>
    </lyric>
    <lyric default-y="-127" number="3" color="#000000">
     <syllabic>single</syllabic>
     <text>who</text>
    </lyric>
    <lyric default-y="-152" number="4" color="#000000">
     <syllabic>single</syllabic>
     <text>O</text>
    </lyric>
   </note>
   <note color="#000000" default-x="124">
    <pitch>
     <step>F</step>
     <octave>4</octave>
    </pitch>
    <duration>256</duration>
    <instrument id="P1-I1" />
    <voice>1</voice>
    <type>quarter</type>
    <stem>up</stem>
    <staff>1</staff>
    <lyric default-y="-77" number="1" color="#000000">
     <syllabic>begin</syllabic>
     <text>Al</text>
    </lyric>
    <lyric default-y="-102" number="2" color="#000000">
     <syllabic>end</syllabic>
     <text>bove</text>
    </lyric>
    <lyric default-y="-127" number="3" color="#000000">
     <syllabic>single</syllabic>
     <text>will</text>
    </lyric>
    <lyric default-y="-152" number="4" color="#000000">
     <syllabic>single</syllabic>
     <text>let</text>
    </lyric>
   </note>
  </measure>
  <measure number="3" width="160">
   <note color="#000000" default-x="15">
    <pitch>
     <step>E</step>
     <octave>4</octave>
    </pitch>
    <duration>256</duration>
    <instrument id="P1-I1" />
    <voice>1</voice>
    <type>quarter</type>
    <stem>up</stem>
    <staff>1</staff>
    <lyric default-y="-77" number="1" color="#000000">
     <syllabic>middle</syllabic>
     <text>migh</text>
    </lyric>
    <lyric default-y="-102" number="2" color="#000000">
     <syllabic>single</syllabic>
     <text>all</text>
    </lyric>
    <lyric default-y="-127" number="3" color="#000000">
     <syllabic>begin</syllabic>
     <text>pros</text>
    </lyric>
    <lyric default-y="-152" number="4" color="#000000">
     <syllabic>end</syllabic>
     <text>all</text>
    </lyric>
   </note>
   <note color="#000000" default-x="63">
    <pitch>
     <step>D</step>
     <octave>4</octave>
    </pitch>
    <duration>256</duration>
    <instrument id="P1-I1" />
    <voice>1</voice>
    <type>quarter</type>
    <stem>up</stem>
    <staff>1</staff>
    <lyric default-y="-77" number="1" color="#000000">
     <syllabic>end</syllabic>
     <text>ty,</text>
    </lyric>
    <lyric default-y="-102" number="2" color="#000000">
     <syllabic>single</syllabic>
     <text>things</text>
    </lyric>
    <lyric default-y="-127" number="3" color="#000000">
     <syllabic>single</syllabic>
     <text>per</text>
    </lyric>
    <lyric default-y="-152" number="4" color="#000000">
     <syllabic>single</syllabic>
     <text>that</text>
    </lyric>
   </note>
   <note color="#000000" default-x="111">
    <pitch>
     <step>C</step>
     <octave>4</octave>
    </pitch>
    <duration>256</duration>
    <instrument id="P1-I1" />
    <voice>1</voice>
    <type>quarter</type>
    <stem>up</stem>
    <staff>1</staff>
    <lyric default-y="-77" number="1" color="#000000">
     <syllabic>single</syllabic>
     <text>the</text>
    </lyric>
    <lyric default-y="-102" number="2" color="#000000">
     <syllabic>single</syllabic>
     <text>so</text>
    </lyric>
    <lyric default-y="-127" number="3" color="#000000">
     <syllabic>single</syllabic>
     <text>your</text>
    </lyric>
    <lyric default-y="-152" number="4" color="#000000">
     <syllabic>single</syllabic>
     <text>is</text>
    </lyric>
   </note>
  </measure>
  <measure number="4" width="160">
   <note color="#000000" default-x="15">
    <pitch>
     <step>D</step>
     <octave>4</octave>
    </pitch>
    <duration>256</duration>
    <instrument id="P1-I1" />
    <voice>1</voice>
    <type>quarter</type>
    <stem>up</stem>
    <staff>1</staff>
    <lyric default-y="-77" number="1" color="#000000">
     <syllabic>single</syllabic>
     <text>King</text>
    </lyric>
    <lyric default-y="-102" number="2" color="#000000">
     <syllabic>begin</syllabic>
     <text>won</text>
    </lyric>
    <lyric default-y="-127" number="3" color="#000000">
     <syllabic>single</syllabic>
     <text>work</text>
    </lyric>
    <lyric default-y="-152" number="4" color="#000000">
     <syllabic>single</syllabic>
     <text>in</text>
    </lyric>
   </note>
   <note color="#000000" default-x="63">
    <pitch>
     <step>E</step>
     <octave>4</octave>
    </pitch>
    <duration>256</duration>
    <instrument id="P1-I1" />
    <voice>1</voice>
    <type>quarter</type>
    <stem>up</stem>
    <staff>1</staff>
    <lyric default-y="-77" number="1" color="#000000">
     <syllabic>single</syllabic>
     <text>of</text>
    </lyric>
    <lyric default-y="-102" number="2" color="#000000">
     <syllabic>middle</syllabic>
     <text>drou</text>
    </lyric>
    <lyric default-y="-127" number="3" color="#000000">
     <syllabic>single</syllabic>
     <text>and</text>
    </lyric>
    <lyric default-y="-152" number="4" color="#000000">
     <syllabic>single</syllabic>
     <text>me</text>
    </lyric>
   </note>
   <note color="#000000" default-x="112">
    <pitch>
     <step>F</step>
     <octave>4</octave>
    </pitch>
    <duration>256</duration>
    <instrument id="P1-I1" />
    <voice>1</voice>
    <type>quarter</type>
    <stem>up</stem>
    <staff>1</staff>
    <lyric default-y="-77" number="1" color="#000000">
     <syllabic>begin</syllabic>
     <text>cre</text>
    </lyric>
    <lyric default-y="-102" number="2" color="#000000">
     <syllabic>end</syllabic>
     <text>sly</text>
    </lyric>
    <lyric default-y="-127" number="3" color="#000000">
     <syllabic>begin</syllabic>
     <text>de</text>
    </lyric>
    <lyric default-y="-152" number="4" color="#000000">
     <syllabic>middle</syllabic>
     <text>a</text>
    </lyric>
   </note>
  </measure>
  <measure number="5" width="156">
   <print new-system="yes">
    <system-layout>
     <system-margins>
      <left-margin>0</left-margin>
      <right-margin>0</right-margin>
     </system-margins>
     <system-distance>165</system-distance>
    </system-layout>
   </print>
   <attributes>
    <staff-details number="1" print-object="yes" />
   </attributes>
   <note color="#000000" default-x="68">
    <pitch>
     <step>G</step>
     <octave>4</octave>
    </pitch>
    <duration>768</duration>
    <instrument id="P1-I1" />
    <voice>1</voice>
    <type>half</type>
    <dot />
    <stem>up</stem>
    <staff>1</staff>
    <lyric default-y="-77" number="1" color="#000000">
     <syllabic>middle</syllabic>
     <text>a</text>
    </lyric>
    <lyric default-y="-102" number="2" color="#000000">
     <syllabic>begin</syllabic>
     <text>reig</text>
    </lyric>
    <lyric default-y="-127" number="3" color="#000000">
     <syllabic>end</syllabic>
     <text>fend</text>
    </lyric>
    <lyric default-y="-152" number="4" color="#000000">
     <syllabic>single</syllabic>
     <text>dore</text>
    </lyric>
   </note>
  </measure>
  <measure number="6" width="71">
   <note color="#000000" default-x="15">
    <pitch>
     <step>F</step>
     <octave>4</octave>
    </pitch>
    <duration>768</duration>
    <instrument id="P1-I1" />
    <voice>1</voice>
    <type>half</type>
    <dot />
    <stem>up</stem>
    <staff>1</staff>
    <lyric default-y="-77" number="1" color="#000000">
     <syllabic>end</syllabic>
     <text>tion!</text>
    </lyric>
    <lyric default-y="-102" number="2" color="#000000">
     <syllabic>end</syllabic>
     <text>ning;</text>
    </lyric>
    <lyric default-y="-127" number="3" color="#000000">
     <syllabic>single</syllabic>
     <text>you;</text>
    </lyric>
    <lyric default-y="-152" number="4" color="#000000">
     <syllabic>single</syllabic>
     <text>him!</text>
    </lyric>
   </note>
  </measure>
  <measure number="7" width="162">
   <note color="#000000" default-x="15">
    <pitch>
     <step>F</step>
     <octave>4</octave>
    </pitch>
    <duration>256</duration>
    <instrument id="P1-I1" />
    <voice>1</voice>
    <type>quarter</type>
    <stem>up</stem>
    <staff>1</staff>
    <lyric default-y="-77" number="1" color="#000000">
     <syllabic>single</syllabic>
     <text>O</text>
    </lyric>
    <lyric default-y="-102" number="2" color="#000000">
     <syllabic>begin</syllabic>
     <text>shel</text>
    </lyric>
    <lyric default-y="-127" number="3" color="#000000">
     <syllabic>begin</syllabic>
     <text>sure</text>
    </lyric>
    <lyric default-y="-152" number="4" color="#000000">
     <syllabic>end</syllabic>
     <text>All</text>
    </lyric>
   </note>
   <note color="#000000" default-x="68">
    <pitch>
     <step>F</step>
     <octave>4</octave>
    </pitch>
    <duration>256</duration>
    <instrument id="P1-I1" />
    <voice>1</voice>
    <type>quarter</type>
    <stem>up</stem>
    <staff>1</staff>
    <lyric default-y="-77" number="1" color="#000000">
     <syllabic>single</syllabic>
     <text>my</text>
    </lyric>
    <lyric default-y="-102" number="2" color="#000000">
     <syllabic>end</syllabic>
     <text>tering</text>
    </lyric>
    <lyric default-y="-127" number="3" color="#000000">
     <syllabic>single</syllabic>
     <text>ly</text>
    </lyric>
    <lyric default-y="-152" number="4" color="#000000">
     <syllabic>single</syllabic>
     <text>that</text>
    </lyric>
   </note>
   <note color="#000000" default-x="119">
    <pitch>
     <step>C</step>
     <octave>5</octave>
    </pitch>
    <duration>256</duration>
    <instrument id="P1-I1" />
    <voice>1</voice>
    <type>quarter</type>
    <stem>down</stem>
    <staff>1</staff>
    <lyric default-y="-77" number="1" color="#000000">
     <syllabic>single</syllabic>
     <text>soul,</text>
    </lyric>
    <lyric default-y="-102" number="2" color="#000000">
     <syllabic>single</syllabic>
     <text>you</text>
    </lyric>
    <lyric default-y="-127" number="3" color="#000000">
     <syllabic>single</syllabic>
     <text>his</text>
    </lyric>
    <lyric default-y="-152" number="4" color="#000000">
     <syllabic>single</syllabic>
     <text>has</text>
    </lyric>
   </note>
  </measure>
  <measure number="8" width="180">
   <note color="#000000" default-x="15">
    <pitch>
     <step>A</step>
     <octave>4</octave>
    </pitch>
    <duration>384</duration>
    <instrument id="P1-I1" />
    <voice>1</voice>
    <type>quarter</type>
    <dot />
    <stem>up</stem>
    <staff>1</staff>
    <lyric default-y="-77" number="1" color="#000000">
     <syllabic>single</syllabic>
     <text>praise</text>
    </lyric>
    <lyric default-y="-102" number="2" color="#000000">
     <syllabic>begin</syllabic>
     <text>un</text>
    </lyric>
    <lyric default-y="-127" number="3" color="#000000">
     <syllabic>begin</syllabic>
     <text>good</text>
    </lyric>
    <lyric default-y="-152" number="4" color="#000000">
     <syllabic>end</syllabic>
     <text>life</text>
    </lyric>
   </note>
   <note color="#000000" default-x="82">
    <pitch>
     <step>G</step>
     <octave>4</octave>
    </pitch>
    <duration>128</duration>
    <instrument id="P1-I1" />
    <voice>1</voice>
    <type>eighth</type>
    <stem>up</stem>
    <staff>1</staff>
    <beam number="1">begin</beam>
    <lyric default-y="-77" number="1" color="#000000">
     <syllabic>single</syllabic>
     <text>him,</text>
    </lyric>
    <lyric default-y="-102" number="2" color="#000000">
     <syllabic>end</syllabic>
     <text>der</text>
    </lyric>
    <lyric default-y="-127" number="3" color="#000000">
     <syllabic>single</syllabic>
     <text>ness</text>
    </lyric>
    <lyric default-y="-152" number="4" color="#000000">
     <syllabic>single</syllabic>
     <text>and</text>
    </lyric>
   </note>
   <note color="#000000" default-x="137">
    <pitch>
     <step>F</step>
     <octave>4</octave>
    </pitch>
    <duration>256</duration>
    <instrument id="P1-I1" />
    <voice>1</voice>
    <type>quarter</type>
    <stem>up</stem>
    <staff>1</staff>
    <lyric default-y="-77" number="1" color="#000000">
     <syllabic>single</syllabic>
     <text>for</text>
    </lyric>
    <lyric default-y="-102" number="2" color="#000000">
     <syllabic>single</syllabic>
     <text>his</text>
    </lyric>
    <lyric default-y="-127" number="3" color="#000000">
     <syllabic>single</syllabic>
     <text>and</text>
    </lyric>
    <lyric default-y="-152" number="4" color="#000000">
     <syllabic>single</syllabic>
     <text>breath,</text>
    </lyric>
   </note>
  </measure>
  <measure number="9" width="158">
   <note color="#000000" default-x="15">
    <pitch>
     <step>E</step>
     <octave>4</octave>
    </pitch>
    <duration>256</duration>
    <instrument id="P1-I1" />
    <voice>1</voice>
    <type>quarter</type>
    <stem>up</stem>
    <staff>1</staff>
    <lyric default-y="-77" number="1" color="#000000">
     <syllabic>single</syllabic>
     <text>he</text>
    </lyric>
    <lyric default-y="-102" number="2" color="#000000">
     <syllabic>single</syllabic>
     <text>wings,</text>
    </lyric>
    <lyric default-y="-127" number="3" color="#000000">
     <syllabic>begin</syllabic>
     <text>mer</text>
    </lyric>
    <lyric default-y="-152" number="4" color="#000000">
     <syllabic>end</syllabic>
     <text>come</text>
    </lyric>
   </note>
   <note color="#000000" default-x="68">
    <pitch>
     <step>D</step>
     <octave>4</octave>
    </pitch>
    <duration>256</duration>
    <instrument id="P1-I1" />
    <voice>1</voice>
    <type>quarter</type>
    <stem>up</stem>
    <staff>1</staff>
    <lyric default-y="-77" number="1" color="#000000">
     <syllabic>single</syllabic>
     <text>is</text>
    </lyric>
    <lyric default-y="-102" number="2" color="#000000">
     <syllabic>single</syllabic>
     <text>and</text>
    </lyric>
    <lyric default-y="-127" number="3" color="#000000">
     <syllabic>single</syllabic>
     <text>cy</text>
    </lyric>
    <lyric default-y="-152" number="4" color="#000000">
     <syllabic>single</syllabic>
     <text>now</text>
    </lyric>
   </note>
   <note color="#000000" default-x="115">
    <pitch>
     <step>C</step>
     <octave>4</octave>
    </pitch>
    <duration>256</duration>
    <instrument id="P1-I1" />
    <voice>1</voice>
    <type>quarter</type>
    <stem>up</stem>
    <staff>1</staff>
    <lyric default-y="-77" number="1" color="#000000">
     <syllabic>single</syllabic>
     <text>your</text>
    </lyric>
    <lyric default-y="-102" number="2" color="#000000">
     <syllabic>single</syllabic>
     <text>so</text>
    </lyric>
    <lyric default-y="-127" number="3" color="#000000">
     <syllabic>single</syllabic>
     <text>shall</text>
    </lyric>
    <lyric default-y="-152" number="4" color="#000000">
     <syllabic>single</syllabic>
     <text>with</text>
    </lyric>
   </note>
  </measure>
  <measure number="10" width="224">
   <print new-system="yes">
    <system-layout>
     <system-margins>
      <left-margin>0</left-margin>
      <right-margin>0</right-margin>
     </system-margins>
     <system-distance>165</system-distance>
    </system-layout>
   </print>
   <attributes>
    <staff-details number="1" print-object="yes" />
   </attributes>
   <note color="#000000" default-x="68">
    <pitch>
     <step>D</step>
     <octave>4</octave>
    </pitch>
    <duration>256</duration>
    <instrument id="P1-I1" />
    <voice>1</voice>
    <type>quarter</type>
    <stem>up</stem>
    <staff>1</staff>
    <lyric default-y="-77" number="1" color="#000000">
     <syllabic>single</syllabic>
     <text>health</text>
    </lyric>
    <lyric default-y="-102" number="2" color="#000000">
     <syllabic>begin</syllabic>
     <text>gent</text>
    </lyric>
    <lyric default-y="-127" number="3" color="#000000">
     <syllabic>begin</syllabic>
     <text>dai</text>
    </lyric>
    <lyric default-y="-152" number="4" color="#000000">
     <syllabic>middle</syllabic>
     <text>prai</text>
    </lyric>
   </note>
   <note color="#000000" default-x="120">
    <pitch>
     <step>E</step>
     <octave>4</octave>
    </pitch>
    <duration>256</duration>
    <instrument id="P1-I1" />
    <voice>1</voice>
    <type>quarter</type>
    <stem>up</stem>
    <staff>1</staff>
    <lyric default-y="-77" number="1" color="#000000">
     <syllabic>single</syllabic>
     <text>and</text>
    </lyric>
    <lyric default-y="-102" number="2" color="#000000">
     <syllabic>end</syllabic>
     <text>ly</text>
    </lyric>
    <lyric default-y="-127" number="3" color="#000000">
     <syllabic>end</syllabic>
     <text>ly</text>
    </lyric>
    <lyric default-y="-152" number="4" color="#000000">
     <syllabic>single</syllabic>
     <text>ses</text>
    </lyric>
   </note>
   <note color="#000000" default-x="172">
    <pitch>
     <step>F</step>
     <octave>4</octave>
    </pitch>
    <duration>256</duration>
    <instrument id="P1-I1" />
    <voice>1</voice>
    <type>quarter</type>
    <stem>up</stem>
    <staff>1</staff>
    <lyric default-y="-77" number="1" color="#000000">
     <syllabic>begin</syllabic>
     <text>sal</text>
    </lyric>
    <lyric default-y="-102" number="2" color="#000000">
     <syllabic>begin</syllabic>
     <text>sus</text>
    </lyric>
    <lyric default-y="-127" number="3" color="#000000">
     <syllabic>begin</syllabic>
     <text>at</text>
    </lyric>
    <lyric default-y="-152" number="4" color="#000000">
     <syllabic>middle</syllabic>
     <text>be</text>
    </lyric>
   </note>
  </measure>
  <measure number="11" width="119">
   <note color="#000000" default-x="15">
    <pitch>
     <step>G</step>
     <octave>4</octave>
    </pitch>
    <duration>768</duration>
    <instrument id="P1-I1" />
    <voice>1</voice>
    <type>half</type>
    <dot />
    <stem>up</stem>
    <staff>1</staff>
    <lyric default-y="-77" number="1" color="#000000">
     <syllabic>middle</syllabic>
     <text>va</text>
    </lyric>
    <lyric default-y="-102" number="2" color="#000000">
     <syllabic>middle</syllabic>
     <text>tain</text>
    </lyric>
    <lyric default-y="-127" number="3" color="#000000">
     <syllabic>end</syllabic>
     <text>tend</text>
    </lyric>
    <lyric default-y="-152" number="4" color="#000000">
     <syllabic>single</syllabic>
     <text>fore</text>
    </lyric>
   </note>
  </measure>
  <measure number="12" width="108">
   <note color="#000000" default-x="15">
    <pitch>
     <step>F</step>
     <octave>4</octave>
    </pitch>
    <duration>768</duration>
    <instrument id="P1-I1" />
    <voice>1</voice>
    <type>half</type>
    <dot />
    <stem>up</stem>
    <staff>1</staff>
    <lyric default-y="-77" number="1" color="#000000">
     <syllabic>end</syllabic>
     <text>tion!</text>
    </lyric>
    <lyric default-y="-102" number="2" color="#000000">
     <syllabic>end</syllabic>
     <text>ing!</text>
    </lyric>
    <lyric default-y="-127" number="3" color="#000000">
     <syllabic>single</syllabic>
     <text>you.</text>
    </lyric>
    <lyric default-y="-152" number="4" color="#000000">
     <syllabic>single</syllabic>
     <text>him.</text>
    </lyric>
   </note>
  </measure>
  <measure number="13" width="170">
   <note color="#000000" default-x="15">
    <pitch>
     <step>C</step>
     <octave>5</octave>
    </pitch>
    <duration>256</duration>
    <instrument id="P1-I1" />
    <voice>1</voice>
    <type>quarter</type>
    <stem>down</stem>
    <staff>1</staff>
    <lyric default-y="-77" number="1" color="#000000">
     <syllabic>single</syllabic>
     <text>Come,</text>
    </lyric>
    <lyric default-y="-102" number="2" color="#000000">
     <syllabic>single</syllabic>
     <text>Have</text>
    </lyric>
    <lyric default-y="-127" number="3" color="#000000">
     <syllabic>begin</syllabic>
     <text>Pon</text>
    </lyric>
    <lyric default-y="-152" number="4" color="#000000">
     <syllabic>end</syllabic>
     <text>Let</text>
    </lyric>
   </note>
   <note color="#000000" default-x="66">
    <pitch>
     <step>C</step>
     <octave>5</octave>
    </pitch>
    <duration>256</duration>
    <instrument id="P1-I1" />
    <voice>1</voice>
    <type>quarter</type>
    <stem>down</stem>
    <staff>1</staff>
    <lyric default-y="-77" number="1" color="#000000">
     <syllabic>single</syllabic>
     <text>all</text>
    </lyric>
    <lyric default-y="-102" number="2" color="#000000">
     <syllabic>single</syllabic>
     <text>you</text>
    </lyric>
    <lyric default-y="-127" number="3" color="#000000">
     <syllabic>single</syllabic>
     <text>der</text>
    </lyric>
    <lyric default-y="-152" number="4" color="#000000">
     <syllabic>single</syllabic>
     <text>the</text>
    </lyric>
   </note>
   <note color="#000000" default-x="118">
    <pitch>
     <step>C</step>
     <octave>5</octave>
    </pitch>
    <duration>256</duration>
    <instrument id="P1-I1" />
    <voice>1</voice>
    <type>quarter</type>
    <stem>down</stem>
    <staff>1</staff>
    <lyric default-y="-77" number="1" color="#000000">
     <syllabic>single</syllabic>
     <text>who</text>
    </lyric>
    <lyric default-y="-102" number="2" color="#000000">
     <syllabic>single</syllabic>
     <text>not</text>
    </lyric>
    <lyric default-y="-127" number="3" color="#000000">
     <syllabic>begin</syllabic>
     <text>a</text>
    </lyric>
    <lyric default-y="-152" number="4" color="#000000">
     <syllabic>middle</syllabic>
     <text>A</text>
    </lyric>
   </note>
  </measure>
  <measure number="14" width="108">
   <note color="#000000" default-x="15">
    <pitch>
     <step>D</step>
     <octave>5</octave>
    </pitch>
    <duration>768</duration>
    <instrument id="P1-I1" />
    <voice>1</voice>
    <type>half</type>
    <dot />
    <stem>down</stem>
    <staff>1</staff>
    <lyric default-y="-77" number="1" color="#000000">
     <syllabic>single</syllabic>
     <text>hear;</text>
    </lyric>
    <lyric default-y="-102" number="2" color="#000000">
     <syllabic>single</syllabic>
     <text>seen</text>
    </lyric>
    <lyric default-y="-127" number="3" color="#000000">
     <syllabic>end</syllabic>
     <text>new</text>
    </lyric>
    <lyric default-y="-152" number="4" color="#000000">
     <syllabic>single</syllabic>
     <text>men</text>
    </lyric>
   </note>
  </measure>
  <measure number="15" width="319">
   <print new-system="yes">
    <system-layout>
     <system-margins>
      <left-margin>0</left-margin>
      <right-margin>0</right-margin>
     </system-margins>
     <system-distance>165</system-distance>
    </system-layout>
   </print>
   <attributes>
    <staff-details number="1" print-object="yes" />
   </attributes>
   <note color="#000000" default-x="68">
    <pitch>
     <step>A</step>
     <octave>4</octave>
    </pitch>
    <duration>256</duration>
    <instrument id="P1-I1" />
    <voice>1</voice>
    <type>quarter</type>
    <stem>up</stem>
    <staff>1</staff>
    <lyric default-y="-77" number="1" color="#000000">
     <syllabic>single</syllabic>
     <text>now</text>
    </lyric>
    <lyric default-y="-102" number="2" color="#000000">
     <syllabic>single</syllabic>
     <text>all</text>
    </lyric>
    <lyric default-y="-127" number="3" color="#000000">
     <syllabic>single</syllabic>
     <text>what</text>
    </lyric>
    <lyric default-y="-152" number="4" color="#000000">
     <syllabic>single</syllabic>
     <text>sound</text>
    </lyric>
   </note>
   <note color="#000000" default-x="152">
    <pitch>
     <step>B</step>
     <alter>-1</alter>
     <octave>4</octave>
    </pitch>
    <duration>256</duration>
    <instrument id="P1-I1" />
    <voice>1</voice>
    <type>quarter</type>
    <stem>down</stem>
    <staff>1</staff>
    <lyric default-y="-77" number="1" color="#000000">
     <syllabic>single</syllabic>
     <text>to</text>
    </lyric>
    <lyric default-y="-102" number="2" color="#000000">
     <syllabic>single</syllabic>
     <text>that</text>
    </lyric>
    <lyric default-y="-127" number="3" color="#000000">
     <syllabic>single</syllabic>
     <text>the</text>
    </lyric>
    <lyric default-y="-152" number="4" color="#000000">
     <syllabic>single</syllabic>
     <text>from</text>
    </lyric>
   </note>
   <note color="#000000" default-x="236">
    <pitch>
     <step>C</step>
     <octave>5</octave>
    </pitch>
    <duration>256</duration>
    <instrument id="P1-I1" />
    <voice>1</voice>
    <type>quarter</type>
    <stem>down</stem>
    <staff>1</staff>
    <lyric default-y="-77" number="1" color="#000000">
     <syllabic>single</syllabic>
     <text>his</text>
    </lyric>
    <lyric default-y="-102" number="2" color="#000000">
     <syllabic>single</syllabic>
     <text>is</text>
    </lyric>
    <lyric default-y="-127" number="3" color="#000000">
     <syllabic>begin</syllabic>
     <text>Al</text>
    </lyric>
    <lyric default-y="-152" number="4" color="#000000">
     <syllabic>end</syllabic>
     <text>his</text>
    </lyric>
   </note>
  </measure>
  <measure number="16" width="266">
   <note color="#000000" default-x="15">
    <pitch>
     <step>C</step>
     <octave>5</octave>
    </pitch>
    <duration>256</duration>
    <instrument id="P1-I1" />
    <voice>1</voice>
    <type>quarter</type>
    <stem>down</stem>
    <staff>1</staff>
    <lyric default-y="-77" number="1" color="#000000">
     <syllabic>begin</syllabic>
     <text>tem</text>
    </lyric>
    <lyric default-y="-102" number="2" color="#000000">
     <syllabic>begin</syllabic>
     <text>need</text>
    </lyric>
    <lyric default-y="-127" number="3" color="#000000">
     <syllabic>begin</syllabic>
     <text>migh</text>
    </lyric>
    <lyric default-y="-152" number="4" color="#000000">
     <syllabic>middle</syllabic>
     <text>pe</text>
    </lyric>
   </note>
   <note color="#000000" default-x="98">
    <pitch>
     <step>B</step>
     <alter>-1</alter>
     <octave>4</octave>
    </pitch>
    <duration>256</duration>
    <instrument id="P1-I1" />
    <voice>1</voice>
    <type>quarter</type>
    <stem>down</stem>
    <staff>1</staff>
    <lyric default-y="-77" number="1" color="#000000">
     <syllabic>end</syllabic>
     <text>ple</text>
    </lyric>
    <lyric default-y="-102" number="2" color="#000000">
     <syllabic>end</syllabic>
     <text>ful</text>
    </lyric>
    <lyric default-y="-127" number="3" color="#000000">
     <syllabic>end</syllabic>
     <text>ty</text>
    </lyric>
    <lyric default-y="-152" number="4" color="#000000">
     <syllabic>single</syllabic>
     <text>ople</text>
    </lyric>
   </note>
   <note color="#000000" default-x="182">
    <pitch>
     <step>A</step>
     <octave>4</octave>
    </pitch>
    <duration>256</duration>
    <instrument id="P1-I1" />
    <voice>1</voice>
    <type>quarter</type>
    <stem>up</stem>
    <staff>1</staff>
    <lyric default-y="-77" number="1" color="#000000">
     <syllabic>single</syllabic>
     <text>draw</text>
    </lyric>
    <lyric default-y="-102" number="2" color="#000000">
     <syllabic>single</syllabic>
     <text>has</text>
    </lyric>
    <lyric default-y="-127" number="3" color="#000000">
     <syllabic>single</syllabic>
     <text>can</text>
    </lyric>
    <lyric default-y="-152" number="4" color="#000000">
     <syllabic>begin</syllabic>
     <text>a</text>
    </lyric>
   </note>
  </measure>
  <measure number="17" width="145">
   <note color="#000000" default-x="15">
    <pitch>
     <step>G</step>
     <octave>4</octave>
    </pitch>
    <duration>768</duration>
    <instrument id="P1-I1" />
    <voice>1</voice>
    <type>half</type>
    <dot />
    <stem>up</stem>
    <staff>1</staff>
    <lyric default-y="-77" number="1" color="#000000">
     <syllabic>single</syllabic>
     <text>near,</text>
    </lyric>
    <lyric default-y="-102" number="2" color="#000000">
     <syllabic>single</syllabic>
     <text>been</text>
    </lyric>
    <lyric default-y="-127" number="3" color="#000000">
     <syllabic>end</syllabic>
     <text>do,</text>
    </lyric>
    <lyric default-y="-152" number="4" color="#000000">
     <syllabic>single</syllabic>
     <text>gain;</text>
    </lyric>
   </note>
  </measure>
  <measure number="18" width="279">
   <print new-system="yes">
    <system-layout>
     <system-margins>
      <left-margin>0</left-margin>
      <right-margin>0</right-margin>
     </system-margins>
     <system-distance>165</system-distance>
    </system-layout>
   </print>
   <attributes>
    <staff-details number="1" print-object="yes" />
   </attributes>
   <note color="#000000" default-x="68">
    <pitch>
     <step>C</step>
     <octave>4</octave>
    </pitch>
    <duration>256</duration>
    <instrument id="P1-I1" />
    <voice>1</voice>
    <type>quarter</type>
    <stem>up</stem>
    <staff>1</staff>
    <lyric default-y="-77" number="1" color="#000000">
     <syllabic>single</syllabic>
     <text>join</text>
    </lyric>
    <lyric default-y="-102" number="2" color="#000000">
     <syllabic>single</syllabic>
     <text>sent</text>
    </lyric>
    <lyric default-y="-127" number="3" color="#000000">
     <syllabic>single</syllabic>
     <text>if</text>
    </lyric>
    <lyric default-y="-152" number="4" color="#000000">
     <syllabic>begin</syllabic>
     <text>glad</text>
    </lyric>
   </note>
   <note color="#000000" default-x="139">
    <pitch>
     <step>D</step>
     <octave>4</octave>
    </pitch>
    <duration>256</duration>
    <instrument id="P1-I1" />
    <voice>1</voice>
    <type>quarter</type>
    <stem>up</stem>
    <staff>1</staff>
    <lyric default-y="-77" number="1" color="#000000">
     <syllabic>single</syllabic>
     <text>me</text>
    </lyric>
    <lyric default-y="-102" number="2" color="#000000">
     <syllabic>single</syllabic>
     <text>by</text>
    </lyric>
    <lyric default-y="-127" number="3" color="#000000">
     <syllabic>end</syllabic>
     <text>with</text>
    </lyric>
    <lyric default-y="-152" number="4" color="#000000">
     <syllabic>single</syllabic>
     <text>ly</text>
    </lyric>
   </note>
   <note color="#000000" default-x="209">
    <pitch>
     <step>E</step>
     <octave>4</octave>
    </pitch>
    <duration>256</duration>
    <instrument id="P1-I1" />
    <voice>1</voice>
    <type>quarter</type>
    <stem>up</stem>
    <staff>1</staff>
    <lyric default-y="-77" number="1" color="#000000">
     <syllabic>single</syllabic>
     <text>in</text>
    </lyric>
    <lyric default-y="-102" number="2" color="#000000">
     <syllabic>single</syllabic>
     <text>his</text>
    </lyric>
    <lyric default-y="-127" number="3" color="#000000">
     <syllabic>single</syllabic>
     <text>his</text>
    </lyric>
    <lyric default-y="-152" number="4" color="#000000">
     <syllabic>begin</syllabic>
     <text>for</text>
    </lyric>
   </note>
  </measure>
  <measure number="19" width="225">
   <note color="#000000" default-x="15">
    <pitch>
     <step>F</step>
     <octave>4</octave>
    </pitch>
    <duration>256</duration>
    <instrument id="P1-I1" />
    <voice>1</voice>
    <type>quarter</type>
    <stem>up</stem>
    <staff>1</staff>
    <lyric default-y="-77" number="1" color="#000000">
     <syllabic>single</syllabic>
     <text>glad</text>
    </lyric>
    <lyric default-y="-102" number="2" color="#000000">
     <syllabic>begin</syllabic>
     <text>gra</text>
    </lyric>
    <lyric default-y="-127" number="3" color="#000000">
     <syllabic>end</syllabic>
     <text>love</text>
    </lyric>
    <lyric default-y="-152" number="4" color="#000000">
     <syllabic>begin</syllabic>
     <text>e</text>
    </lyric>
   </note>
   <note color="#000000" default-x="85">
    <pitch>
     <step>D</step>
     <octave>4</octave>
    </pitch>
    <duration>256</duration>
    <instrument id="P1-I1" />
    <voice>1</voice>
    <type>quarter</type>
    <stem>up</stem>
    <staff>1</staff>
    <lyric default-y="-77" number="1" color="#000000">
     <syllabic>begin</syllabic>
     <text>a</text>
    </lyric>
    <lyric default-y="-102" number="2" color="#000000">
     <syllabic>end</syllabic>
     <text>ious</text>
    </lyric>
    <lyric default-y="-127" number="3" color="#000000">
     <syllabic>end</syllabic>
     <text>he</text>
    </lyric>
    <lyric default-y="-152" number="4" color="#000000">
     <syllabic>single</syllabic>
     <text>ver</text>
    </lyric>
   </note>
   <note color="#000000" default-x="85">
    <chord />
    <pitch>
     <step>G</step>
     <octave>4</octave>
    </pitch>
    <duration>256</duration>
    <instrument id="P1-I1" />
    <type>quarter</type>
    <staff>1</staff>
   </note>
   <note color="#000000" default-x="155">
    <pitch>
     <step>A</step>
     <octave>4</octave>
    </pitch>
    <duration>256</duration>
    <instrument id="P1-I1" />
    <voice>1</voice>
    <type>quarter</type>
    <stem>up</stem>
    <staff>1</staff>
    <lyric default-y="-77" number="1" color="#000000">
     <syllabic>middle</syllabic>
     <text>do</text>
    </lyric>
    <lyric default-y="-102" number="2" color="#000000">
     <syllabic>begin</syllabic>
     <text>or</text>
    </lyric>
    <lyric default-y="-127" number="3" color="#000000">
     <syllabic>begin</syllabic>
     <text>be</text>
    </lyric>
    <lyric default-y="-152" number="4" color="#000000">
     <syllabic>middle</syllabic>
     <text>a</text>
    </lyric>
   </note>
  </measure>
  <measure number="20" width="119">
   <note color="#000000" default-x="15">
    <pitch>
     <step>G</step>
     <octave>4</octave>
    </pitch>
    <duration>768</duration>
    <instrument id="P1-I1" />
    <voice>1</voice>
    <type>half</type>
    <dot />
    <stem>up</stem>
    <staff>1</staff>
    <lyric default-y="-77" number="1" color="#000000">
     <syllabic>middle</syllabic>
     <text>ra</text>
    </lyric>
    <lyric default-y="-102" number="2" color="#000000">
     <syllabic>middle</syllabic>
     <text>dain</text>
    </lyric>
    <lyric default-y="-127" number="3" color="#000000">
     <syllabic>end</syllabic>
     <text>friends</text>
    </lyric>
    <lyric default-y="-152" number="4" color="#000000">
     <syllabic>single</syllabic>
     <text>dore</text>
    </lyric>
   </note>
  </measure>
  <measure number="21" width="106">
   <note color="#000000" default-x="15">
    <pitch>
     <step>F</step>
     <octave>4</octave>
    </pitch>
    <duration>768</duration>
    <instrument id="P1-I1" />
    <voice>1</voice>
    <type>half</type>
    <dot />
    <stem>up</stem>
    <staff>1</staff>
    <lyric default-y="-77" number="1" color="#000000">
     <syllabic>end</syllabic>
     <text>tion.</text>
    </lyric>
    <lyric default-y="-102" number="2" color="#000000">
     <syllabic>end</syllabic>
     <text>ing?</text>
    </lyric>
    <lyric default-y="-127" number="3" color="#000000">
     <syllabic>single</syllabic>
     <text>you.</text>
    </lyric>
    <lyric default-y="-152" number="4" color="#000000">
     <syllabic>single</syllabic>
     <text>him.</text>
    </lyric>
   </note>
   <barline>
    <bar-style>light-heavy</bar-style>
   </barline>
  </measure>
 </part>
</score-partwise>
